<?xml version="1.0" encoding="utf-8"?>
<!-- Generator: Adobe Illustrator 19.0.0, SVG Export Plug-In . SVG Version: 6.00 Build 0)  -->
<svg version="1.2" baseProfile="tiny" id="Layer_1" xmlns="http://www.w3.org/2000/svg" xmlns:xlink="http://www.w3.org/1999/xlink"
	 x="0px" y="0px" viewBox="320 196 1639 610" xml:space="preserve">
	 
	 <!-- Main outline -->
	<path fill="none" stroke="#000" d="M983.6,196h19.8c20.7,1.3,41.5,4,61.7,8.9c12.1,2.9,24.1,6.5,36,10.3
	c15.3,5.5,31.7,6.4,47.7,7.9c15.4,1,30.8,1.7,46.2,1.4c10.7,0.1,21.3-1.6,32-0.6c6,0.7,12.1,0.2,18,1.1c35,3.4,69.9,13.9,99.3,33.6
	c31,20.5,54.6,51.1,68.4,85.4c5.8,14.2,10,28.9,13.8,43.7c18.7,4.7,36.8,11.1,55,17.3c45.6,15.6,91.4,31.1,138.6,41.5
	c19.7,4.5,39.9,6.4,59.9,9.4c48.1,6.8,96.1,15.7,142.6,30.2c34.5,11,68.9,24.9,97.6,47.5c13.3,10.4,25.1,23.3,32.1,38.8
	c3.5,7.6,5.5,15.9,6.5,24.2v9.8c-1.3,16.7-7.8,32.6-17.4,46.2c-9.6,13.8-21.8,25.6-35,35.9c-9.5,7.2-19.4,13.8-30.3,18.7
	c-19.5,8.5-40.5,13.3-61.4,17c-22.8,3.9-45.8,6.4-68.8,7.4c-44.6,2.3-89.4,0.1-133.5-6.8c-26.7-4-53.6-5.4-80.5-5.5
	c-49.9-0.4-99.8,3.7-149.3,10.3c-8.1,0.9-16.1,2.6-24.3,3c0.3,0.2,0.7,0.5,1.1,0.7c-12.3,0.6-24.4,3.6-36.6,5.4
	c-102.9,18.8-205.8,37.5-309.2,53.4c-42.2,6.4-84.5,13-127.2,13.9h-25.9c-23.4-0.7-46.9-2.3-69.9-7.3c-18.1-4.1-36.1-10.3-51.3-21.1
	C717,762,699.4,740.8,682,720c-4-4.6-7.8-9.6-12.6-13.4c-6.4-3.7-13.8-5.2-20.9-6.8c-25-4.6-50.4-6-75.6-8.1
	c-39.4-2.9-78.9-5.8-117.7-13.7c-27.8-5.4-55.7-12.7-80.7-26.5c-12.9-7.2-24.2-17-34.3-27.7c-10.2-10.9-18.4-24.3-20.3-39.3v-9.7
	c1.3-6.1,2.8-12.2,5.8-17.8c6.9-13.5,17.8-24.3,28.9-34.2c16.7-13.6,37-21.7,57.3-28.4c35.5-11.4,72.3-18.4,109.1-23.6
	c21.3-3.2,42.7-5,64-8.1c2.3-0.2,4.5-0.2,6.8-0.2c-0.9-0.2-1.8-0.4-2.8-0.6c6.2-0.3,12.3-1.6,18.4-2.8c14.2-2.9,28.4-7.1,41-14.6
	c13.3-7.9,24.6-18.7,34.7-30.3c16.7-19.1,36.6-35.8,59.7-46.3c9.1-4,18.5-7.7,28.5-8.5c13.8-34.5,32.3-67.7,58-94.8
	c23.1-24.6,52-43.7,83.7-55.1C935.7,201.1,959.7,197.2,983.6,196z"/>

	<!-- Inner outline -->
	<path fill="none" stroke="#000" d="M946.4,223.8c42.9-9.1,87.8-4.4,129.6,8c8.1,2.2,16.1,4.8,24,7.4c15,4.5,30.7,5.4,46.1,7.1
	c6.3,0.4,12.6,0.3,18.8,1.1c17,0.4,34,0.7,51-0.5c23.8,0.1,47.6,2.8,70.4,9.9c28.8,8.8,55.6,24.8,75.4,47.6
	c17.8,20.2,29.9,45.1,37.3,70.9c3.8,12.6,7.6,25.1,9,38.2c0.7,11.5,1.7,23.1,1,34.7c-0.8,2.4-2.9,4.3-2.9,7
	c-0.1,4.4-0.6,9.2,1.6,13.3c2.6,4.8,5.6,9.4,9.4,13.5c5.3,6.8,11.7,12.7,19.4,16.8c15.3,8.2,29.7,18.5,41.3,31.6
	c4.6,5.5,9,11.7,10.4,18.9c0.5,4-0.3,9-3.9,11.3c-7.3,2-14.7-1-20.8-4.8c-8.4-5.3-16.7-11.3-26.4-13.9c-11.7-3.1-23.9-2-35.8-0.7
	c-23.6,3.8-45.7,13.9-69.4,17.6c-16,1.8-32.2-2.8-46.1-10.5c-7.3-4.3-14.6-9.5-18.7-17.2c-5-9.3-7.9-19.7-9.5-30.1
	c-0.3-4.9-1.7-10.5-6.6-12.7c-6-3.6-14.2,0-16.4,6.4c-1,5.4,0.3,11,1.4,16.3c2.3,11.3,5.7,22.6,11.6,32.6c2,3.5,4.8,6.4,6.6,10
	c-30.4-1.3-60.8-0.7-91.3-0.5c-12.6,1-25.3,0.5-38,1.1c-10,0.9-20,0.4-30,1.2c-3.8,0.3-7.7,0.3-11.5,0.4c0.9-3.3,2.5-6.8,1.2-10.2
	c-1.5-5.9-8.4-9.8-14.2-7.8c-2.4,0.6-4.5,2.2-6.1,4.1c-10.5,12.7-23.8,23.1-38.7,30.2c-17.2,7.8-36.2,10.4-54.8,12.4
	c-16.3,1.7-32.6,1.9-49,1.2c-4-0.7-8.9-0.1-11.8-3.6c-2.7-2.8-4-7.6-1.1-10.7c4-2.8,9.1-3.4,13.9-4c14.5-1.9,29.1,6.1,43.3,1.2
	c13.7-5.7,25.5-14.9,37.6-23.4c3.7-2.3,6.4-6.4,5.7-10.9c0-8.5-10.7-13.9-17.6-9c-9.9,7.2-19.8,14.4-30.5,20.3
	c-4.6,2.7-10,1.1-14.9,0.4c-13.9-2.7-28.7-3-42.1,1.9c-7.9,2.9-14.7,9-18,16.8c-0.7,2.5-3.5,1.9-5.4,1.9c-12-0.8-24-1.1-36-2.2
	c-18.3-2.1-36.9-3.5-54.7-8.7c-10.4-3.3-21.1-7.9-27.9-16.9c-7.9-10.1-10.8-23.5-9.2-36.1c1.5-13.6,7-26.4,14.1-38
	c1.2-2.1,2.4-4.3,2.9-6.7c2.1-20.1,6.7-39.9,12.2-59.4c6.5-21.3,14.3-42.3,24.7-61.9c17.6-34.4,42.8-65.6,75.6-86.4
	C902.2,237.4,923.9,228.6,946.4,223.8z"/>
	
	<!-- Top back highlight -->
	<path fill="none" stroke="#000" d="M961.2,251.1c4.5-4.6,10.3-8.3,16.8-8.8c9.1-0.6,18.3-0.3,27.3,1.4
	c14.1,1.7,28.5,2.5,42.2,6.7c8.7,2.7,17.9,3.3,26.5,6.1c15.8,4.9,32.3,6.7,48.7,8.1c14.3,2.1,28.9,0.5,43.3,1.3
	c3.6,0.3,7.2-0.2,10.8-0.4c14.4-0.2,28.8-3.4,43.3-1.5c6.8,0.3,13.6,2.5,19,6.8c4.9,3.8,4.4,11.5,1.2,16.2
	c-2.8,4.9-8.7,6.3-13.2,8.9c-7.6,4.3-15.8,7.7-23.9,11.1c-10.5,4.3-22,4.6-33.2,6.2c-9.9,1.3-20,1.2-30,0.8
	c-10.6-1.5-21.3-0.1-31.9-1.5c-12.1-0.2-24.2-1.7-35.8-5.1c-12.2-3.7-24.6-6.8-36.5-11.5c-14.5-6.3-29.7-10.8-43.5-18.5
	c-6.5-3.6-12.7-8.1-20.1-9.8c-4.6-1-8-4.6-11.7-7.3C960.5,257.5,959.5,253.9,961.2,251.1z"/>

	<!-- Forehead highlight -->
	<path fill="none" stroke="#000" d="M901.3,254.1c6.7-1.4,14.7-0.2,19.2,5.4c4.6,7,1.4,16.3-4.4,21.6c-4.4,4.5-10.3,7-15.2,10.9
	c-4.2,3.3-9.9,2.8-15,2.7c-5.1-0.4-10.9-3.3-12.1-8.7c-1.6-7.1,1.2-14.8,6.2-19.9c4.1-3,7.2-7.3,12.1-9.1
	C895.1,255.7,898.2,254.7,901.3,254.1z"/>
	
	<!-- Butt! -->
	<path fill="none" stroke="#000" d="M1316.3,313.3c9.1-1.2,17.4,4,25.1,8.2c10.8,5.2,20,13.5,26.6,23.5c6.9,10.3,11,22.1,14,34.1
	c2.1,8.5,0.7,17.3,2.2,25.9c1.6,9.3,0.7,18.7,1.1,28c0.9,8.3,2.6,16.6,6.8,23.9c4,8,11.6,13.9,14.2,22.8c2,3.6-0.3,9-4.4,9.8
	c-7,0.1-13-4.1-18.8-7.5c-7-4.1-12.1-10.6-18.1-15.9c-7.8-6.6-14.3-14.8-19.2-23.8c-3.7-8.2-5.5-17.3-5-26.3
	c0-6.2,1.6-12.3,0.7-18.4c-0.9-6.1-2.6-12-4.1-17.9c-3.3-13.8-10.5-26.3-17.4-38.5c-3-5-8.6-8.8-9.1-15.1
	C1309.9,321.3,1310.8,314.7,1316.3,313.3z"/>
	
	<!-- Outer egg highlight -->
	<path fill="none" stroke="#000" d="M704.6,430.5c15.6-17.5,34.3-32.7,56.4-41.2c-5,18.4-9.7,36.9-12.4,55.8
	c-0.5,3.4-0.6,7-2.5,9.9c-8.5,14.4-14.5,30.5-16,47.2c-0.3,1.1,0,2.8-1.4,3.4c-9,5.2-17.8,10.8-26,17.1c-4.9,3.6-9.6,7.7-13.5,12.5
	c-5.8,7.9-8,18.1-6.7,27.8c1.1,6,4.1,11.8,8.9,15.7c8.5,7.2,20.3,9.2,31,7.3c13.4-2.6,25.4-9.4,36.6-17c3-2.2,6,1.4,8.7,2.4
	c25.1,12.1,53.4,13.9,80.6,16.7c13.2,1.1,26.4,1.6,39.7,2.1c4.8,8.4,12.7,15.2,22.3,17.2c13.7,2.9,27.8,2.1,41.7,2
	c27-1.9,54.6-4.2,79.9-14.6c7.5-3.5,14.8-7.6,21.5-12.5c3.5-2.3,6.8-5.4,10.9-6.6c4.3-0.6,8.7-0.1,13-0.8c8.5-0.7,17.1-0.1,25.7-1.1
	c9.7-0.5,19.3-0.1,29-1c11.3-0.2,22.7-0.4,34-0.5c18.6-1,37.3-0.5,56-0.5c10.1,0.8,20.3,0.6,30.5,0.9c12.1,1.3,24.4,0,36.4,2.3
	c5.7,1.9,11.3,3.8,17.2,5c13.5,2.9,27.7,2.5,41.1-0.9c15.4-3.7,30.5-8.7,45.8-12.8c6-1.5,12.1-3,18.3-3c9.5-1.3,19.7-0.7,28,4.3
	c8,4.7,15.5,10.4,24.4,13.5c9.5,3.5,20.4,4.7,29.8,0.2c9-3.8,15.1-12.6,17-22c2.8-11.6-1.1-23.7-7.2-33.6
	c-10-15.4-24.3-27.4-39.2-37.8c-7.5-5.5-16.3-9.4-22.5-16.4c-5.5-6.1-9.7-14.1-9.2-22.5c0.1-10.6,0.3-21.2-0.8-31.8
	c7.8,1.5,15.1,4.6,22.6,6.9c43.4,14.8,86.8,30,131.2,41.7c23.8,6.4,48.1,11.3,72.6,14.2c62.7,8.2,125.5,19.3,184.8,42
	c21.2,8.2,42.1,17.9,60.1,32.1c12.7,10.1,24.8,22.8,28.4,39.1c3.1,14.1-1.9,28.6-9.5,40.5c-10.3,16-24.8,29-40.4,39.7
	c-18.3,12.9-40.7,17.9-62.2,22.6c-51.4,9.6-104.1,11.4-156.2,7.5c-22.2-1.5-44-5.3-66.1-7.9c-51.2-5.4-102.8-3.9-154,0.4
	c-50,4.1-99.8,11.3-149.1,20.6c-62.8,11.6-125.7,22.7-188.7,33.4c-43,7.3-86,14.3-129.2,20.4c-28.3,4-56.6,8.1-85.2,8.2
	c-12.6,0.8-25.2,0.9-37.8,0c-15.5-0.2-30.9-1.7-46.2-4.3c-17.7-3.3-35.9-7.7-50.9-18.2c-23.2-15.9-40.3-38.5-58.4-59.7
	c-4.8-5.2-9.5-10.8-15.8-14.2c-9.8-5.2-20.8-7.6-31.6-9.7c-24.1-4.3-48.6-5.8-73-7.8c-29.5-2-59-4.3-88.2-8.6
	c-24.7-3.4-49.3-8.4-73-16.3c-10-3.5-19.9-7.5-29.1-12.7c-8.6-4.7-15.9-11.4-22.9-18.1c-7.8-8.1-16.3-17.4-16.8-29.3
	c0.6-12.9,10.6-22.4,19-31.1c11.8-12.4,27.9-19.2,43.6-25.3c32.9-12,67.4-18.4,101.8-24.2c35.4-6.1,71.6-7.5,106.8-15.1
	c15.5-3.3,30.7-8.6,44.4-16.8C678.6,457.9,692.3,444.7,704.6,430.5z"/>
	
	<!-- (His) left eye-->
	<path fill="none" stroke="#000" d="M936.5,395.8c9.5-0.7,20.9-2.1,28.1,5.5c3.5,2.9,3.5,7.9,2.5,12c-2.1,4.7-6.5,7.8-11,10
	c-10.1,4.7-21.7,5.2-32.5,2.7c-4.1-1.3-7.9-4-9.8-7.8c-1.7-5.5,0.5-11.9,5-15.4C923.9,398.8,930.3,397,936.5,395.8z"/>
	
	<!-- (His) right eye -->
	<path fill="none" stroke="#000" d="M805.4,448.6c5.6-0.3,12.6-1.8,16.8,3.2c3.3,3.2,2,8.2,0.6,12c-3.3,7.6-10.2,13.1-17.7,16.5
	c-6.5,3-13.9,6-21.1,3.9c-7.5-3.4-8.3-14-4-20.2C786.3,456.1,795.6,450.6,805.4,448.6z"/>

	<!-- Outer mouth -->
	<path fill="none" stroke="#000" d="M906,449.5c16.9-2.2,34.6-3.5,51.1,1.5c8.7,2.6,16.9,8.9,18.7,18.2c2.4,8.1-3.1,15.7-9.4,20.2
	c-17.1,12.1-36.9,19.7-56.2,27.6c-21.1,7.7-42.4,15.6-64.5,19.8c-1.2,6-2.3,12.3-5.2,17.8c-3.5,5.9-13.5,5.7-16.4-0.6
	c-3.1-4.9,0.7-10.1,1.7-15.1c2.7-10.1,0.2-22.4-8.9-28.5c-4.1-3.1-10.1-1.5-13.7-5.3c-4.1-3.7-3.6-10.9,0.5-14.4
	c3.3-2.4,7.6-2.4,11.4-1.5c5.8,1,10.9,4.2,15.9,7.2c10.5-10.4,21.3-20.6,33.5-29C876.9,458.8,890.7,451.4,906,449.5z"/>

	<!-- Inner mouth -->
	<path fill="none" stroke="#000" d="M906.5,468.8c12.3-1.8,24.9-2.9,37.3-1.2c4.5,0.7,9.1,1.6,12.7,4.5c-0.9,1-1.5,2.1-2.7,2.8
	c-8.6,5.9-18,10.3-27.5,14.6c-19.2,8.5-38.9,15.7-58.8,21.9c-7.8,2.3-15.5,4.7-23.5,6.1c-0.4-2.2-2.8-4.9-0.3-6.6
	c10.8-11.3,22.5-22,35.7-30.4C887.8,475.2,896.7,470.6,906.5,468.8z"/>

	<!-- (His) right arm -->
	<path fill="none" stroke="#000" d="M708.5,548.5c7.1-7,15.7-12.2,23.7-18c2.4,3.6,3.3,7.9,5.4,11.7c1.5,3.2,4,5.9,5.2,9.2
	c-9.8,6-20.8,12.6-32.8,11c-2-0.2-4.9-1.1-4.8-3.6C704.9,555.2,705.8,551.2,708.5,548.5z"/>

	<!-- Rear egg highlight -->
	<path fill="none" stroke="#000" d="M1823.4,554.5c5.8-1.8,11.9,0.2,16.9,3.3c7.2,4.5,13.7,10.3,18.6,17.3
	c7.1,8.3,15.2,15.8,20.8,25.3c4.1,6.2,5.4,13.6,7.4,20.6c1.6,6-0.4,12.4-3.8,17.4c-3.5,5.3-7.5,10.8-13.6,13.4
	c-9.9,4.2-20.5,6.4-30.9,9.1c-6.5,1.8-13,3.3-19.5,4.5c-11.8,2.1-23.4,4.8-35.3,6.7c-13.5,3-27.3,2.7-41,3.1
	c-8,0.5-15.9,0.9-23.9,1.3c-15,1.3-30.1,0.6-45.1,0.9c-2.8-0.1-5.9-0.1-8.2-2c-2.3-2.7-0.2-7.2,3.4-6.8c10.4,0.2,20.6-2,30.9-3.3
	c4.5-0.6,9.1-1.9,13.7-1.6c6.5,0.6,12.4-2.8,18.7-4c18.6-5.6,38-7.8,56.6-13.5c8.5-3.1,17.5-5,25.3-9.8c7.3-4.4,15.5-8.3,20-16
	c3.7-6.4,2.6-14.2,1.4-21.2c-1.1-6-3.4-11.8-5.4-17.5c-2.6-7.2-7.9-13.1-10.8-20.1C1818.3,558.6,1820.6,555.4,1823.4,554.5z"/>

	<!-- Front egg highlight -->
	<path fill="none" stroke="#000" d="M511.4,624.5c11.5-0.5,23-0.5,34.5,0.4c28.1,0.9,56,4,84.1,4.4c22.6,1.3,45.3,0.8,68,1
	c12,0.2,24.1,1.3,36,0.1c7.4-0.7,14.8,0.2,22,1.6c19.3,3.7,39.2,8.7,55.1,20.9c14.2,9,29,17.3,44,25c8.1,4,15.5,10.4,24.9,11.1
	c12.6,1.2,25.2,3.5,37.9,3.4c15,0,30,0.1,45-0.3c9-0.3,18,0.3,27-0.2c12.2-0.7,24,2.7,35.9,4.4c12.2,2.3,25.8,2.8,35.7,11.2
	c2.9,3.8-0.8,8.8-4,11c-4.9,2.4-10.2,4.4-15.6,5.5c-18.1,2-35.7,7.2-53.9,9.2c-9.2,1.5-18.5,2.5-27.7,3.3c-9.8,1.5-19.5,3-29.2,4.7
	c-11.6,1.8-23.5,1-35.1,1.9c-9.3,1.2-18.7,0.8-28,0.9c-10.7-0.2-21.4,0.2-32-1.1c-11.8-1-23.3-3.9-35-5.9c-10.1-0.3-18.9-6.2-26-13
	c-10.3-11.9-20.7-24.8-24.7-40.4c-1.8-5.2-3.4-10.5-5.3-15.7c-2.2-6-7.6-9.9-12.8-13.2c-5.5-3.4-12.1-3.7-18.4-3.9
	c-21.4-1.4-42.8-3.6-64.2-5.4c-7.3-0.9-14.7-0.1-22-1c-12-0.9-23.9-1.8-35.8-3.1c-15-1.2-29.9-4-45-4.4c-12.3-0.9-24.7-1.4-37-2.6
	c-4-0.4-8.2-0.1-12.1-1.1c-3.1-0.6-3.5-5.7-0.4-6.7C501.8,624.6,506.8,625.1,511.4,624.5z"/>
</svg>
