<?xml version="1.0" encoding="UTF-8" ?>
<!DOCTYPE svg PUBLIC "-//W3C//DTD SVG 1.1//EN" "http://www.w3.org/Graphics/SVG/1.1/DTD/svg11.dtd">
<svg width="1639pt" height="610pt" viewBox="0 0 1639 610" version="1.1" xmlns="http://www.w3.org/2000/svg">
		<!-- Top right -->
		<path fill="none" stroke="#000" d=" M 0.00 0.00 L 663.57 0.00 C 639.65 1.22 615.71 5.09 593.17 13.37 C 561.39 24.71 532.50 43.83 509.43 68.44 C 483.72 95.57 465.17 128.70 451.38 163.25 C 441.42 164.14 431.95 167.75 422.88 171.80 C 399.71 182.37 379.81 199.06 363.14 218.14 C 353.04 229.75 341.79 240.62 328.47 248.48 C 315.88 255.91 301.71 260.14 287.47 263.03 C 281.37 264.17 275.28 265.46 269.08 265.79 C 270.00 266.00 270.92 266.22 271.85 266.42 C 269.57 266.33 267.29 266.35 265.03 266.58 C 243.75 269.61 222.33 271.47 201.07 274.65 C 164.21 279.84 127.46 286.86 91.96 298.25 C 71.70 304.93 51.38 313.08 34.67 326.67 C 23.50 336.61 12.60 347.41 5.75 360.88 C 2.82 366.43 1.27 372.54 0.00 378.64 L 0.00 0.00 Z" />
		
		<!-- Whole body outline -->
		<path fill="none" stroke="#000" d=" M 663.57 0.00 L 683.41 0.00 C 704.16 1.26 724.86 4.01 745.08 8.94 C 757.21 11.85 769.16 15.47 781.06 19.22 C 796.35 24.74 812.76 25.59 828.80 27.15 C 844.17 28.16 859.57 28.88 874.99 28.56 C 885.67 28.68 896.32 26.97 907.00 27.94 C 912.99 28.63 919.06 28.18 925.04 29.08 C 960.08 32.53 994.95 42.97 1024.39 62.63 C 1055.41 83.08 1078.95 113.77 1092.84 148.05 C 1098.60 162.22 1102.80 176.98 1106.66 191.75 C 1125.33 196.43 1143.50 202.85 1161.71 209.06 C 1207.34 224.62 1253.13 240.17 1300.27 250.56 C 1319.99 255.11 1340.17 256.94 1360.15 259.92 C 1408.27 266.75 1456.28 275.62 1502.73 290.16 C 1537.26 301.19 1571.62 315.11 1600.37 337.65 C 1613.64 348.08 1625.42 360.93 1632.48 376.41 C 1635.96 384.06 1637.99 392.30 1639.00 400.63 L 1639.00 410.43 C 1637.73 427.10 1631.15 443.03 1621.55 456.60 C 1611.97 470.41 1599.75 482.22 1586.55 492.52 C 1577.07 499.68 1567.11 506.34 1556.22 511.17 C 1536.67 519.70 1515.75 524.48 1494.82 528.18 C 1472.07 532.07 1449.06 534.56 1426.01 535.57 C 1381.45 537.88 1336.64 535.69 1292.54 528.77 C 1265.89 524.78 1238.93 523.33 1212.00 523.30 C 1162.06 522.91 1112.20 527.03 1062.72 533.62 C 1054.61 534.51 1046.60 536.24 1038.45 536.63 C 1038.79 536.86 1039.14 537.10 1039.50 537.34 C 1027.17 537.96 1015.07 540.92 1002.87 542.73 C 899.98 561.53 797.06 580.21 693.67 596.09 C 651.49 602.52 609.17 609.12 566.43 610.00 L 540.54 610.00 C 517.13 609.29 493.62 607.67 470.67 602.72 C 452.58 598.61 434.59 592.43 419.37 581.57 C 396.95 565.98 379.37 544.78 362.00 524.00 C 357.99 519.38 354.25 514.39 349.43 510.56 C 343.08 506.82 335.68 505.38 328.56 503.80 C 303.59 499.24 278.20 497.76 252.94 495.65 C 213.53 492.77 174.00 489.84 135.20 481.99 C 107.40 476.58 79.47 469.30 54.55 455.47 C 41.62 448.30 30.36 438.46 20.27 427.73 C 10.07 416.84 1.86 403.44 0.00 388.38 L 0.00 378.64 C 1.27 372.54 2.82 366.43 5.75 360.88 C 12.60 347.41 23.50 336.61 34.67 326.67 C 51.38 313.08 71.70 304.93 91.96 298.25 C 127.46 286.86 164.21 279.84 201.07 274.65 C 222.33 271.47 243.75 269.61 265.03 266.58 C 267.29 266.35 269.57 266.33 271.85 266.42 C 270.92 266.22 270.00 266.00 269.08 265.79 C 275.28 265.46 281.37 264.17 287.47 263.03 C 301.71 260.14 315.88 255.91 328.47 248.48 C 341.79 240.62 353.04 229.75 363.14 218.14 C 379.81 199.06 399.71 182.37 422.88 171.80 C 431.95 167.75 441.42 164.14 451.38 163.25 C 465.17 128.70 483.72 95.57 509.43 68.44 C 532.50 43.83 561.39 24.71 593.17 13.37 C 615.71 5.09 639.65 1.22 663.57 0.00 Z" />
		
		<!-- Back and right-top side of egg -->
		<path fill="none" stroke="#000" d=" M 683.41 0.00 L 1639.00 0.00 L 1639.00 400.63 C 1637.99 392.30 1635.96 384.06 1632.48 376.41 C 1625.42 360.93 1613.64 348.08 1600.37 337.65 C 1571.62 315.11 1537.26 301.19 1502.73 290.16 C 1456.28 275.62 1408.27 266.75 1360.15 259.92 C 1340.17 256.94 1319.99 255.11 1300.27 250.56 C 1253.13 240.17 1207.34 224.62 1161.71 209.06 C 1143.50 202.85 1125.33 196.43 1106.66 191.75 C 1102.80 176.98 1098.60 162.22 1092.84 148.05 C 1078.95 113.77 1055.41 83.08 1024.39 62.63 C 994.95 42.97 960.08 32.53 925.04 29.08 C 919.06 28.18 912.99 28.63 907.00 27.94 C 896.32 26.97 885.67 28.68 874.99 28.56 C 859.57 28.88 844.17 28.16 828.80 27.15 C 812.76 25.59 796.35 24.74 781.06 19.22 C 769.16 15.47 757.21 11.85 745.08 8.94 C 724.86 4.01 704.16 1.26 683.41 0.00 Z" />
		
		<!-- Inner body outline -->
		<path fill="none" stroke="#000" d=" M 626.42 27.78 C 669.36 18.72 714.22 23.42 756.01 35.76 C 764.09 37.99 772.07 40.54 780.04 43.11 C 795.01 47.60 810.71 48.49 826.15 50.21 C 832.43 50.58 838.74 50.51 844.99 51.28 C 861.99 51.65 879.03 52.00 896.00 50.78 C 919.75 50.88 943.63 53.58 966.40 60.63 C 995.15 69.41 1021.96 85.45 1041.81 108.19 C 1059.66 128.43 1071.74 153.26 1079.13 179.09 C 1082.88 191.64 1086.75 204.24 1088.16 217.32 C 1088.88 228.86 1089.83 240.41 1089.19 251.98 C 1088.42 254.40 1086.30 256.31 1086.28 258.96 C 1086.14 263.39 1085.65 268.18 1087.84 272.23 C 1090.44 277.06 1093.47 281.68 1097.21 285.72 C 1102.53 292.50 1108.94 298.45 1116.60 302.50 C 1131.91 310.74 1146.31 321.04 1157.90 334.09 C 1162.48 339.63 1166.90 345.75 1168.26 352.97 C 1168.75 356.95 1168.00 361.94 1164.36 364.27 C 1157.08 366.27 1149.71 363.23 1143.54 359.51 C 1135.12 354.24 1126.87 348.23 1117.13 345.64 C 1105.42 342.53 1093.18 343.65 1081.31 344.99 C 1057.70 348.82 1035.57 358.87 1011.92 362.54 C 995.92 364.31 979.74 359.73 965.80 352.03 C 958.47 347.77 951.17 342.55 947.14 334.87 C 942.16 325.52 939.25 315.16 937.64 304.73 C 937.31 299.86 935.94 294.21 931.05 292.00 C 925.10 288.38 916.84 292.05 914.65 298.40 C 913.64 303.84 914.94 309.35 916.09 314.66 C 918.42 325.97 921.82 337.22 927.67 347.24 C 929.62 350.73 932.48 353.61 934.25 357.20 C 903.87 355.94 873.41 356.51 842.99 356.74 C 830.35 357.70 817.66 357.20 805.00 357.82 C 795.02 358.70 784.99 358.20 775.01 359.00 C 771.18 359.34 767.34 359.35 763.51 359.39 C 764.41 356.10 766.02 352.60 764.68 349.19 C 763.14 343.30 756.29 339.38 750.48 341.37 C 748.03 341.95 746.02 343.56 744.43 345.44 C 733.96 358.17 720.60 368.50 705.77 375.65 C 688.56 383.46 669.59 386.07 650.98 388.10 C 634.72 389.77 618.33 390.03 602.00 389.34 C 598.01 388.62 593.10 389.22 590.22 385.78 C 587.48 383.02 586.23 378.18 589.07 375.05 C 593.11 372.21 598.21 371.67 602.98 371.04 C 617.47 369.14 632.04 377.13 646.31 372.26 C 659.99 366.53 671.81 357.33 683.89 348.89 C 687.56 346.57 690.29 342.51 689.61 338.00 C 689.64 329.54 678.88 324.08 672.01 329.00 C 662.13 336.17 652.21 343.37 641.51 349.29 C 636.94 351.99 631.49 350.42 626.61 349.66 C 612.69 346.97 597.93 346.67 584.46 351.60 C 576.54 354.53 569.77 360.55 566.46 368.38 C 565.77 370.92 562.99 370.25 561.02 370.28 C 549.02 369.53 537.00 369.16 525.02 368.08 C 506.69 365.95 488.10 364.60 470.32 359.35 C 459.95 356.01 449.22 351.44 442.47 342.48 C 434.58 332.37 431.71 318.93 433.24 306.34 C 434.72 292.74 440.21 279.89 447.33 268.32 C 448.55 266.21 449.72 264.00 450.23 261.60 C 452.36 241.47 456.97 221.68 462.47 202.22 C 468.92 180.92 476.73 159.95 487.19 140.27 C 504.83 105.92 529.94 74.64 562.82 53.84 C 582.24 41.45 603.90 32.58 626.42 27.78 Z" />
		
		<!-- Top highlight -->
		<path fill="none" stroke="#000" d=" M 641.25 55.15 C 645.70 50.53 651.53 46.83 658.08 46.38 C 667.17 45.81 676.37 46.12 685.34 47.82 C 699.49 49.49 713.86 50.37 727.57 54.55 C 736.26 57.24 745.43 57.85 754.10 60.60 C 769.87 65.47 786.37 67.31 802.75 68.70 C 817.08 70.81 831.61 69.17 846.02 70.02 C 849.61 70.30 853.20 69.79 856.80 69.63 C 871.23 69.38 885.62 66.22 900.07 68.13 C 906.89 68.43 913.70 70.65 919.05 74.96 C 923.99 78.80 923.41 86.43 920.22 91.21 C 917.39 96.08 911.56 97.47 906.99 100.12 C 899.34 104.45 891.20 107.78 883.13 111.23 C 872.61 115.52 861.08 115.85 849.96 117.39 C 840.02 118.67 829.96 118.64 819.96 118.23 C 809.37 116.69 798.62 118.10 788.01 116.76 C 775.92 116.58 763.80 115.11 752.20 111.63 C 740.02 107.90 727.60 104.87 715.74 100.18 C 701.27 93.91 686.04 89.33 672.19 81.67 C 665.67 78.10 659.48 73.57 652.12 71.87 C 647.48 70.84 644.15 67.26 640.46 64.55 C 640.46 61.45 639.55 57.94 641.25 55.15 Z" />
		
		<!-- Forehead highlight -->
		<path fill="none" stroke="#000" d=" M 581.31 58.09 C 587.98 56.72 596.00 57.87 600.48 63.47 C 605.09 70.44 601.84 79.80 596.10 85.09 C 591.73 89.62 585.84 92.12 580.94 95.97 C 576.70 99.24 571.00 98.80 565.97 98.65 C 560.87 98.23 555.06 95.37 553.84 89.99 C 552.25 82.85 555.03 75.17 560.09 70.08 C 564.18 67.12 567.31 62.77 572.17 60.98 C 575.12 59.73 578.17 58.74 581.31 58.09 Z" />
		
		<!-- Butt! -->
		<path fill="none" stroke="#000" d=" M 996.33 117.32 C 1005.43 116.07 1013.76 121.28 1021.40 125.53 C 1032.17 130.74 1041.44 138.99 1047.98 149.01 C 1054.91 159.28 1058.94 171.14 1061.98 183.07 C 1064.09 191.56 1062.66 200.40 1064.19 208.97 C 1065.76 218.24 1064.92 227.65 1065.32 236.99 C 1066.22 245.25 1067.90 253.63 1072.14 260.89 C 1076.16 268.94 1083.74 274.81 1086.32 283.65 C 1088.27 287.30 1085.98 292.68 1081.88 293.47 C 1074.84 293.53 1068.85 289.38 1063.03 285.96 C 1056.00 281.87 1050.91 275.40 1044.91 270.07 C 1037.13 263.43 1030.65 255.26 1025.76 246.28 C 1022.09 238.08 1020.26 229.00 1020.73 220.01 C 1020.69 213.85 1022.31 207.72 1021.39 201.57 C 1020.50 195.50 1018.80 189.59 1017.25 183.67 C 1013.90 169.85 1006.72 157.41 999.81 145.12 C 996.77 140.11 991.17 136.31 990.72 130.03 C 989.95 125.28 990.84 118.73 996.33 117.32 Z" />
		
		<!-- Inner egg outline -->
		<path fill="none" stroke="#000" d=" M 384.56 234.55 C 400.14 217.06 418.89 201.84 440.91 193.35 C 435.92 211.72 431.19 230.22 428.54 249.10 C 428.07 252.47 427.94 256.07 426.04 259.02 C 417.55 273.42 411.54 289.49 410.07 306.22 C 409.80 307.37 410.04 309.04 408.72 309.61 C 399.73 314.80 390.95 320.39 382.68 326.68 C 377.74 330.32 373.06 334.41 369.21 339.20 C 363.46 347.11 361.18 357.31 362.47 366.96 C 363.56 372.99 366.56 378.74 371.32 382.68 C 379.78 389.84 391.62 391.90 402.34 389.97 C 415.70 387.37 427.77 380.52 438.94 372.99 C 441.94 370.84 444.89 374.35 447.64 375.35 C 472.72 387.42 501.03 389.20 528.28 392.04 C 541.47 393.17 554.71 393.60 567.94 394.17 C 572.69 402.59 580.68 409.35 590.28 411.35 C 603.98 414.20 618.08 413.48 632.01 413.35 C 658.97 411.47 686.61 409.17 711.89 398.79 C 719.42 395.33 726.68 391.24 733.37 386.34 C 736.91 384.00 740.14 380.95 744.31 379.74 C 748.62 379.16 753.01 379.62 757.33 378.94 C 765.86 378.21 774.48 378.84 783.00 377.84 C 792.65 377.30 802.35 377.78 811.99 376.80 C 823.32 376.62 834.66 376.38 846.00 376.27 C 864.64 375.27 883.34 375.82 902.01 375.78 C 912.16 376.58 922.36 376.39 932.54 376.67 C 944.63 377.99 956.93 376.64 968.91 379.01 C 974.58 380.89 980.25 382.85 986.13 384.02 C 999.64 386.94 1013.80 386.49 1027.18 383.10 C 1042.62 379.41 1057.70 374.41 1073.01 370.25 C 1079.02 368.72 1085.11 367.30 1091.35 367.25 C 1100.80 365.90 1111.01 366.55 1119.35 371.60 C 1127.36 376.31 1134.88 382.04 1143.77 385.08 C 1153.23 388.55 1164.17 389.74 1173.52 385.30 C 1182.52 381.54 1188.63 372.69 1190.53 363.31 C 1193.38 351.68 1189.46 339.58 1183.32 329.68 C 1173.34 314.27 1159.03 302.27 1144.07 291.92 C 1136.56 286.43 1127.75 282.57 1121.52 275.48 C 1116.00 269.41 1111.79 261.42 1112.28 253.03 C 1112.39 242.42 1112.54 231.80 1111.53 221.23 C 1119.28 222.75 1126.63 225.79 1134.17 228.12 C 1177.62 242.88 1220.98 258.11 1265.39 269.82 C 1289.23 276.21 1313.49 281.13 1338.01 284.07 C 1400.68 292.23 1463.54 303.33 1522.77 326.06 C 1543.97 334.28 1564.90 344.00 1582.88 358.12 C 1595.58 368.20 1607.67 380.93 1611.26 397.25 C 1614.32 411.38 1609.32 425.84 1601.80 437.73 C 1591.50 453.77 1577.05 466.75 1561.41 477.43 C 1543.06 490.31 1520.75 495.37 1499.20 500.08 C 1447.80 509.67 1395.11 511.49 1343.02 507.61 C 1320.87 506.09 1299.00 502.26 1276.97 499.70 C 1225.80 494.34 1174.15 495.79 1122.96 500.06 C 1072.96 504.16 1023.20 511.37 973.89 520.63 C 911.07 532.23 848.18 543.37 785.21 554.06 C 742.22 561.33 699.18 568.34 656.02 574.49 C 627.76 578.46 599.42 582.58 570.83 582.69 C 558.25 583.54 545.58 583.58 533.00 582.67 C 517.51 582.51 502.06 580.97 486.78 578.41 C 469.04 575.11 450.87 570.70 435.84 560.23 C 412.63 544.36 395.50 521.70 377.42 500.58 C 372.59 495.41 367.96 489.76 361.60 486.41 C 351.79 481.17 340.79 478.84 329.97 476.75 C 305.86 472.45 281.36 470.97 257.00 468.99 C 227.54 467.00 198.04 464.67 168.79 460.43 C 144.05 457.01 119.46 452.06 95.74 444.17 C 85.74 440.66 75.85 436.70 66.63 431.43 C 58.03 426.73 50.75 420.02 43.71 413.28 C 35.88 405.19 27.42 395.86 26.87 384.00 C 27.47 371.11 37.43 361.56 45.89 352.89 C 57.72 340.50 73.81 333.67 89.49 327.57 C 122.34 315.53 156.89 309.18 191.27 303.32 C 226.71 297.25 262.84 295.78 298.05 288.24 C 313.56 284.89 328.78 279.61 342.44 271.47 C 358.61 261.88 372.35 248.73 384.56 234.55 Z" />
		
		<!-- (His) left eye -->
		<path fill="none" stroke="#000" d=" M 616.53 199.80 C 626.01 199.07 637.42 197.73 644.68 205.33 C 648.23 208.23 648.21 213.27 647.20 217.35 C 645.06 222.02 640.68 225.18 636.18 227.38 C 626.09 232.06 614.47 232.56 603.73 230.06 C 599.64 228.80 595.87 226.09 593.91 222.23 C 592.17 216.73 594.37 210.36 598.86 206.81 C 603.89 202.76 610.30 201.01 616.53 199.80 Z" />
		
		<!-- (His) right eye -->
		<path fill="none" stroke="#000" d=" M 485.40 252.61 C 491.04 252.29 498.04 250.86 502.20 255.76 C 505.55 258.99 504.17 263.98 502.80 267.80 C 499.47 275.44 492.57 280.91 485.11 284.25 C 478.61 287.26 471.25 290.20 464.05 288.17 C 456.53 284.81 455.73 274.19 460.06 268.01 C 466.29 260.09 475.56 254.60 485.40 252.61 Z" />
		
		<!-- Outer mouth -->
		<path fill="none" stroke="#000" d=" M 585.96 253.49 C 602.87 251.30 620.52 249.97 637.07 254.98 C 645.74 257.53 654.01 263.85 655.75 273.17 C 658.18 281.24 652.63 288.90 646.38 293.41 C 629.26 305.56 609.50 313.14 590.18 320.98 C 569.04 328.66 547.80 336.55 525.63 340.74 C 524.42 346.78 523.37 353.02 520.40 358.49 C 516.89 364.40 506.94 364.23 503.98 357.88 C 500.87 352.94 504.65 347.74 505.65 342.79 C 508.33 332.69 505.88 320.38 496.79 314.27 C 492.71 311.20 486.68 312.79 483.05 308.98 C 478.95 305.32 479.46 298.11 483.54 294.63 C 486.81 292.20 491.16 292.25 494.96 293.17 C 500.79 294.20 505.87 297.37 510.89 300.33 C 521.36 289.92 532.17 279.74 544.38 271.36 C 556.86 262.77 570.74 255.43 585.96 253.49 Z" />
		
		<!-- Inner mouth -->
		<path fill="none" stroke="#000" d=" M 586.45 272.80 C 598.79 271.04 611.38 269.93 623.80 271.59 C 628.26 272.25 632.87 273.24 636.51 276.06 C 635.66 277.03 634.96 278.16 633.84 278.83 C 625.29 284.76 615.83 289.16 606.39 293.43 C 587.23 301.89 567.54 309.11 547.55 315.33 C 539.80 317.65 532.06 320.07 524.09 321.48 C 523.71 319.32 521.29 316.61 523.80 314.87 C 534.61 303.55 546.27 292.89 559.48 284.42 C 567.80 279.22 576.71 274.57 586.45 272.80 Z" />
		
		<!-- (His) right arm -->
		<path fill="none" stroke="#000" d=" M 388.54 352.54 C 395.67 345.59 404.24 340.39 412.27 334.59 C 414.64 338.22 415.57 342.53 417.64 346.32 C 419.11 349.55 421.68 352.18 422.87 355.55 C 413.04 361.56 402.05 368.14 390.04 366.59 C 388.02 366.40 385.10 365.47 385.26 362.96 C 384.91 359.25 385.75 355.20 388.54 352.54 Z" />
		
		<!-- Rear egg highlight -->
		<path fill="none" stroke="#000" d=" M 1503.39 358.47 C 1509.18 356.67 1515.31 358.69 1520.31 361.73 C 1527.54 366.25 1534.02 372.05 1538.96 379.03 C 1546.05 387.30 1554.17 394.83 1559.74 404.30 C 1563.81 410.48 1565.18 417.87 1567.11 424.90 C 1568.71 430.93 1566.66 437.27 1563.31 442.32 C 1559.79 447.63 1555.77 453.15 1549.68 455.67 C 1539.77 459.88 1529.17 462.05 1518.78 464.73 C 1512.33 466.48 1505.83 468.01 1499.26 469.21 C 1487.47 471.31 1475.82 474.05 1463.99 475.93 C 1450.53 478.92 1436.69 478.67 1422.99 479.04 C 1415.03 479.56 1407.05 479.92 1399.09 480.30 C 1384.07 481.57 1369.01 480.86 1353.97 481.22 C 1351.15 481.14 1348.03 481.11 1345.74 479.25 C 1343.44 476.55 1345.52 472.06 1349.19 472.44 C 1359.59 472.62 1369.76 470.40 1380.05 469.15 C 1384.60 468.56 1389.11 467.29 1393.74 467.51 C 1400.26 468.14 1406.15 464.71 1412.42 463.55 C 1431.02 457.97 1450.46 455.77 1469.04 450.10 C 1477.52 447.00 1486.53 445.06 1494.33 440.33 C 1501.63 435.93 1509.86 432.00 1514.36 424.37 C 1518.04 417.92 1516.99 410.18 1515.77 403.20 C 1514.68 397.16 1512.35 391.45 1510.33 385.68 C 1507.76 378.43 1502.46 372.59 1499.51 365.55 C 1498.27 362.57 1500.58 359.42 1503.39 358.47 Z" />
		
		<!-- Bottom left egg outline -->
		<path fill="none" stroke="#000" d=" M 0.00 388.38 C 1.86 403.44 10.07 416.84 20.27 427.73 C 30.36 438.46 41.62 448.30 54.55 455.47 C 79.47 469.30 107.40 476.58 135.20 481.99 C 174.00 489.84 213.53 492.77 252.94 495.65 C 278.20 497.76 303.59 499.24 328.56 503.80 C 335.68 505.38 343.08 506.82 349.43 510.56 C 354.25 514.39 357.99 519.38 362.00 524.00 C 379.37 544.78 396.95 565.98 419.37 581.57 C 434.59 592.43 452.58 598.61 470.67 602.72 C 493.62 607.67 517.13 609.29 540.54 610.00 L 0.00 610.00 L 0.00 388.38 Z" />
		
		<!-- Bottom right egg outline -->
		<path fill="none" stroke="#000" d=" M 1621.55 456.60 C 1631.15 443.03 1637.73 427.10 1639.00 410.43 L 1639.00 610.00 L 566.43 610.00 C 609.17 609.12 651.49 602.52 693.67 596.09 C 797.06 580.21 899.98 561.53 1002.87 542.73 C 1015.07 540.92 1027.17 537.96 1039.50 537.34 C 1039.14 537.10 1038.79 536.86 1038.45 536.63 C 1046.60 536.24 1054.61 534.51 1062.72 533.62 C 1112.20 527.03 1162.06 522.91 1212.00 523.30 C 1238.93 523.33 1265.89 524.78 1292.54 528.77 C 1336.64 535.69 1381.45 537.88 1426.01 535.57 C 1449.06 534.56 1472.07 532.07 1494.82 528.18 C 1515.75 524.48 1536.67 519.70 1556.22 511.17 C 1567.11 506.34 1577.07 499.68 1586.55 492.52 C 1599.75 482.22 1611.97 470.41 1621.55 456.60 Z" />
		
		<!-- Left egg highlight -->
		<path fill="none" stroke="#000" d=" M 191.42 428.54 C 202.92 428.01 214.47 428.00 225.95 428.95 C 254.01 429.83 281.96 433.00 310.04 433.31 C 332.67 434.57 355.36 434.14 378.02 434.30 C 390.03 434.53 402.08 435.61 414.07 434.39 C 421.44 433.73 428.84 434.56 436.08 435.96 C 455.41 439.61 475.27 444.70 491.19 456.81 C 505.43 465.86 520.17 474.12 535.18 481.83 C 543.29 485.86 550.69 492.25 560.07 492.88 C 572.72 494.03 585.27 496.39 598.01 496.32 C 613.00 496.33 628.01 496.43 643.01 495.99 C 652.00 495.72 661.00 496.28 669.99 495.76 C 682.14 495.10 693.97 498.42 705.89 500.21 C 718.09 502.52 731.68 503.00 741.59 511.45 C 744.50 515.22 740.79 520.24 737.57 522.48 C 732.63 524.89 727.38 526.87 721.98 527.93 C 703.84 529.91 686.24 535.18 668.10 537.16 C 658.90 538.63 649.64 539.70 640.36 540.43 C 630.61 541.97 620.85 543.46 611.13 545.17 C 599.51 546.99 587.68 546.18 575.99 547.08 C 566.71 548.32 557.33 547.88 548.00 547.96 C 537.32 547.81 526.60 548.17 515.98 546.84 C 504.17 545.81 492.64 542.95 481.00 540.97 C 470.91 540.70 462.06 534.74 455.04 527.95 C 444.72 516.04 434.33 503.19 430.39 487.59 C 428.62 482.35 427.03 477.05 425.11 471.86 C 422.94 465.85 417.54 461.92 412.36 458.62 C 406.88 455.17 400.23 454.88 393.96 454.71 C 372.53 453.30 351.18 451.07 329.79 449.32 C 322.49 448.47 315.11 449.17 307.81 448.30 C 295.86 447.38 283.91 446.50 272.00 445.15 C 256.96 443.95 242.07 441.18 226.97 440.78 C 214.62 439.89 202.26 439.36 189.93 438.23 C 185.91 437.79 181.77 438.17 177.84 437.13 C 174.70 436.49 174.33 431.47 177.44 430.46 C 181.84 428.63 186.77 429.10 191.42 428.54 Z" />
</svg>
